<svg id="visual" viewBox="0 0 960 200" width="960" height="200" xmlns="http://www.w3.org/2000/svg" xmlns:xlink="http://www.w3.org/1999/xlink" version="1.1"><rect x="0" y="0" width="960" height="200" fill="#f3f3f3"></rect><path d="M0 72L22.8 71.3C45.7 70.7 91.3 69.3 137 68.2C182.7 67 228.3 66 274 71.2C319.7 76.3 365.3 87.7 411.2 101.3C457 115 503 131 548.8 139C594.7 147 640.3 147 686 142C731.7 137 777.3 127 823 118.8C868.7 110.7 914.3 104.3 937.2 101.2L960 98L960 201L937.2 201C914.3 201 868.7 201 823 201C777.3 201 731.7 201 686 201C640.3 201 594.7 201 548.8 201C503 201 457 201 411.2 201C365.3 201 319.7 201 274 201C228.3 201 182.7 201 137 201C91.3 201 45.7 201 22.8 201L0 201Z" fill="#dcd0ed" stroke-linecap="round" stroke-linejoin="miter"></path></svg>