<svg id="visual" viewBox="0 0 900 200" width="900" height="200" xmlns="http://www.w3.org/2000/svg" xmlns:xlink="http://www.w3.org/1999/xlink" version="1.1"><path d="M0 92L30 93C60 94 120 96 180 98C240 100 300 102 360 103.8C420 105.7 480 107.3 540 99.3C600 91.3 660 73.7 720 74C780 74.3 840 92.7 870 101.8L900 111L900 201L870 201C840 201 780 201 720 201C660 201 600 201 540 201C480 201 420 201 360 201C300 201 240 201 180 201C120 201 60 201 30 201L0 201Z" fill="#800080"></path><path d="M0 119L30 121.3C60 123.7 120 128.3 180 128.3C240 128.3 300 123.7 360 115.7C420 107.7 480 96.3 540 98.2C600 100 660 115 720 114C780 113 840 96 870 87.5L900 79L900 201L870 201C840 201 780 201 720 201C660 201 600 201 540 201C480 201 420 201 360 201C300 201 240 201 180 201C120 201 60 201 30 201L0 201Z" fill="#aa62a6"></path><path d="M0 146L30 141.3C60 136.7 120 127.3 180 124.5C240 121.7 300 125.3 360 126.7C420 128 480 127 540 131.3C600 135.7 660 145.3 720 143.7C780 142 840 129 870 122.5L900 116L900 201L870 201C840 201 780 201 720 201C660 201 600 201 540 201C480 201 420 201 360 201C300 201 240 201 180 201C120 201 60 201 30 201L0 201Z" fill="#d0aacc"></path><path d="M0 142L30 146.7C60 151.3 120 160.7 180 163C240 165.3 300 160.7 360 157.8C420 155 480 154 540 155.2C600 156.3 660 159.7 720 158.8C780 158 840 153 870 150.5L900 148L900 201L870 201C840 201 780 201 720 201C660 201 600 201 540 201C480 201 420 201 360 201C300 201 240 201 180 201C120 201 60 201 30 201L0 201Z" fill="#f3f3f3"></path></svg>